<?xml version="1.0" encoding="UTF-8" standalone="no"?>
<!-- Created with Inkscape (http://www.inkscape.org/) -->

<svg
   width="48"
   height="48"
   viewBox="0 0 12.699999 12.7"
   version="1.1"
   id="svg1"
   inkscape:version="1.4.4 (dcaf3e7d9e, 2026-05-05)"
   sodipodi:docname="cat.svg"
   inkscape:export-filename="renders/cat.png"
   inkscape:export-xdpi="96"
   inkscape:export-ydpi="96"
   xmlns:inkscape="http://www.inkscape.org/namespaces/inkscape"
   xmlns:sodipodi="http://sodipodi.sourceforge.net/DTD/sodipodi-0.dtd"
   xmlns="http://www.w3.org/2000/svg"
   xmlns:svg="http://www.w3.org/2000/svg">
  <sodipodi:namedview
     id="namedview1"
     pagecolor="#898989"
     bordercolor="#999999"
     borderopacity="1"
     inkscape:showpageshadow="2"
     inkscape:pageopacity="0"
     inkscape:pagecheckerboard="0"
     inkscape:deskcolor="#d1d1d1"
     inkscape:document-units="mm"
     showguides="false"
     inkscape:zoom="8.4167791"
     inkscape:cx="67.246626"
     inkscape:cy="32.732236"
     inkscape:window-width="1723"
     inkscape:window-height="1080"
     inkscape:window-x="0"
     inkscape:window-y="0"
     inkscape:window-maximized="0"
     inkscape:current-layer="layer1"
     showgrid="false" />
  <defs
     id="defs1">
    <inkscape:path-effect
       effect="bend_path"
       id="path-effect10"
       is_visible="true"
       lpeversion="1"
       bendpath="m 140.11745,74.979053 c 10.75299,-9.1089 18.96278,-5.891174 25.03007,0.251482"
       prop_scale="0.67826979"
       scale_y_rel="false"
       vertical="false"
       hide_knot="false"
       bendpath-nodetypes="cc" />
    <inkscape:path-effect
       effect="bend_path"
       id="path-effect7"
       is_visible="true"
       lpeversion="1"
       bendpath="m 140.11745,74.979053 c 10.75299,-9.1089 18.96278,-5.891174 25.03007,0.251482"
       prop_scale="0.67826979"
       scale_y_rel="false"
       vertical="false"
       hide_knot="false"
       bendpath-nodetypes="cc" />
    <inkscape:path-effect
       effect="bend_path"
       id="path-effect35"
       is_visible="true"
       lpeversion="1"
       bendpath="m 140.11745,74.979053 c 10.75299,-9.1089 18.96278,-5.891174 25.03007,0.251482"
       prop_scale="0.67826979"
       scale_y_rel="false"
       vertical="false"
       hide_knot="false"
       bendpath-nodetypes="cc" />
    <inkscape:path-effect
       effect="bend_path"
       id="path-effect33"
       is_visible="true"
       lpeversion="1"
       bendpath="m 140.11745,74.979053 c 8.04541,-7.836566 17.47397,-5.191556 25.03007,0.251482"
       prop_scale="1"
       scale_y_rel="false"
       vertical="false"
       hide_knot="false"
       bendpath-nodetypes="cc" />
    <inkscape:path-effect
       effect="bend_path"
       id="path-effect31"
       is_visible="true"
       lpeversion="1"
       bendpath="m 140.11745,74.979053 c 8.04541,-7.836566 17.47397,-5.191556 25.03007,0.251482"
       prop_scale="1"
       scale_y_rel="false"
       vertical="false"
       hide_knot="false"
       bendpath-nodetypes="cc" />
    <inkscape:path-effect
       effect="bend_path"
       id="path-effect29"
       is_visible="true"
       lpeversion="1"
       bendpath="m 140.11745,74.979053 c 8.04541,-7.836566 17.47397,-5.191556 25.03007,0.251482"
       prop_scale="1"
       scale_y_rel="false"
       vertical="false"
       hide_knot="false"
       bendpath-nodetypes="cc" />
    <inkscape:path-effect
       effect="bend_path"
       id="path-effect27"
       is_visible="true"
       lpeversion="1"
       bendpath="m 140.11745,74.979053 c 8.04541,-7.836566 17.47397,-5.191556 25.03007,0.251482"
       prop_scale="1"
       scale_y_rel="false"
       vertical="false"
       hide_knot="false"
       bendpath-nodetypes="cc" />
    <inkscape:path-effect
       effect="bend_path"
       id="path-effect25"
       is_visible="true"
       lpeversion="1"
       bendpath="m 140.11745,74.979053 c 8.04541,-7.836566 17.47397,-5.191556 25.03007,0.251482"
       prop_scale="1"
       scale_y_rel="false"
       vertical="false"
       hide_knot="false"
       bendpath-nodetypes="cc" />
    <inkscape:path-effect
       effect="bend_path"
       id="path-effect22"
       is_visible="true"
       lpeversion="1"
       bendpath="m 140.11745,74.979053 c 8.04541,-7.836566 17.47397,-5.191556 25.03007,0.251482"
       prop_scale="1"
       scale_y_rel="false"
       vertical="false"
       hide_knot="false"
       bendpath-nodetypes="cc" />
    <inkscape:path-effect
       effect="bend_path"
       id="path-effect20"
       is_visible="true"
       lpeversion="1"
       bendpath="m 140.11745,74.979053 c 8.04541,-7.836566 17.47397,-5.191556 25.03007,0.251482"
       prop_scale="1"
       scale_y_rel="false"
       vertical="false"
       hide_knot="false"
       bendpath-nodetypes="cc" />
    <inkscape:path-effect
       effect="bend_path"
       id="path-effect18"
       is_visible="true"
       lpeversion="1"
       bendpath="m 140.11745,74.979053 c 10.75299,-9.1089 18.96278,-5.891174 25.03007,0.251482"
       prop_scale="0.67826979"
       scale_y_rel="false"
       vertical="false"
       hide_knot="false"
       bendpath-nodetypes="cc" />
    <inkscape:path-effect
       effect="bend_path"
       id="path-effect8"
       is_visible="true"
       lpeversion="1"
       bendpath="m 106.4908,87.430264 c 7.35207,2.738577 14.29134,1.574582 21.18718,0"
       prop_scale="0.86572013"
       scale_y_rel="false"
       vertical="false"
       hide_knot="false"
       bendpath-nodetypes="cc" />
    <inkscape:path-effect
       effect="bend_path"
       id="path-effect6"
       is_visible="true"
       lpeversion="1"
       bendpath="m 106.4908,87.430264 c 7.35207,2.738577 14.29134,1.574582 21.18718,0"
       prop_scale="0.86572013"
       scale_y_rel="false"
       vertical="false"
       hide_knot="false"
       bendpath-nodetypes="cc" />
    <inkscape:path-effect
       effect="bend_path"
       id="path-effect4"
       is_visible="true"
       lpeversion="1"
       bendpath="m 106.4908,87.430264 c 7.35207,2.738577 14.29134,1.574582 21.18718,0"
       prop_scale="0.86572013"
       scale_y_rel="false"
       vertical="false"
       hide_knot="false"
       bendpath-nodetypes="cc" />
  </defs>
  <g
     inkscape:label="Layer 1"
     inkscape:groupmode="layer"
     id="layer1">
    <path
       id="path1"
       style="fill:#ffffff;stroke-width:0.200829;stroke-linecap:round"
       d="m 6.3922087,2.3269372 c -2.6239673,-1.7e-6 -4.751114,2.1271455 -4.7511125,4.7511133 -1e-7,0.2304717 0.016416,0.4570909 0.048131,0.6787922 C 1.2533587,7.8693271 0.74458261,7.755603 0,7.4578218 0.36243598,8.2430098 0.91945506,8.7498727 1.5139181,9.0654736 1.1191066,9.107962 0.65353093,8.9879392 0.01402695,8.7321829 0.40957177,9.5890975 1.036836,10.114608 1.6916477,10.421685 c -0.3445172,0.0971 -0.77591242,0.101545 -1.351481,0.04736 1.240069,1.521113 3.1436217,1.289607 4.0620336,0.924513 0.6053213,0.279593 1.279449,0.435604 1.9900084,0.435604 0.7744466,0 1.5055916,-0.185317 2.1515673,-0.51399 0.9792216,0.308317 2.68656,0.395714 3.829901,-1.006749 -0.575567,0.05418 -1.006908,0.04974 -1.351427,-0.04736 0.654813,-0.3070753 1.282022,-0.8325309 1.677566,-1.6894457 -0.639503,0.2557563 -1.105024,0.3757743 -1.499835,0.3332909 0.594464,-0.315601 1.151428,-0.8225184 1.513863,-1.6077064 -0.694738,0.2778457 -1.184135,0.3954674 -1.60061,0.3186034 0.01989,-0.1765057 0.03008,-0.3559337 0.03008,-0.5377531 2e-6,-2.6239677 -2.1271434,-4.7511148 -4.7511127,-4.7511133 z M 3.2093113,7.3199247 C 3.7547128,7.3062909 4.1765381,7.5406252 4.4798815,7.8072418 4.7700754,8.062302 4.9119441,8.284584 4.9119441,8.284584 c 0,0 -0.2079952,-0.084976 -0.5156623,-0.1661938 C 4.0848213,8.0361721 3.7126754,7.9757839 3.4024155,8.0875303 3.2291859,8.1273401 3.066767,8.2153965 2.9031144,8.3183085 2.5471881,8.5421255 2.2428772,8.6094317 2.0957505,8.4530074 2.0233455,8.3760182 1.9906702,8.2426571 2.0430066,8.074046 2.0941643,7.9092348 2.2349455,7.6985877 2.5045627,7.5357798 2.6773616,7.4314274 2.9248378,7.3414976 3.2093105,7.3199278 Z m 6.3965523,0 c 0.2844716,0.021573 0.5318764,0.1115059 0.7046764,0.2158518 0.269616,0.1628079 0.410469,0.373455 0.461628,0.5382663 0.05234,0.168611 0.01959,0.3019771 -0.05282,0.3789614 C 10.57222,8.6094365 10.26791,8.5421351 9.9119851,8.3183054 9.7483319,8.2153965 9.5859138,8.1273289 9.4126834,8.0875272 9.1024236,7.9757806 8.7302773,8.0361691 8.4188179,8.118387 8.1111515,8.199594 7.9031558,8.2845808 7.9031558,8.2845808 c 0,0 0.1419326,-0.2222821 0.4321336,-0.4773422 C 8.638633,7.5406221 9.0604582,7.3063056 9.6058604,7.3199214 Z M 6.3878172,7.9264339 c 0.4952262,0.00609 0.9836292,0.097488 1.120665,0.2562519 0.3643881,0.4221746 -1.1411874,1.2234246 -1.1411874,1.2234246 0,0 -1.5140516,-0.808718 -1.1411884,-1.2234246 C 5.3905314,7.9998093 5.892592,7.9204062 6.3878172,7.9264339 Z M 4.0660457,8.2393048 c 0.1389092,-0.004 0.2722847,0.010426 0.3955371,0.035158 0.314426,0.062907 0.50863,0.1638265 0.50863,0.1638265 0,0 -0.1847558,0.025197 -0.4395977,0.094504 C 4.2726314,8.6029501 3.9801091,8.7139476 3.8034783,8.9230213 3.6954834,9.0235081 3.6152592,9.1542164 3.540337,9.2960977 3.3773893,9.6046719 3.1865853,9.7793987 3.0159201,9.7280164 2.9319313,9.7027222 2.8530868,9.6204081 2.8207348,9.4775051 2.7891115,9.3378179 2.8029343,9.1279599 2.9291627,8.8990536 3.010064,8.7523412 3.1505659,8.5850437 3.3460842,8.45149 3.5875628,8.3039115 3.8345309,8.2459324 4.0660453,8.2392984 Z m 4.6830122,0 c 0.2315144,0.00658 0.478481,0.064622 0.7199608,0.2121916 0.1955169,0.1335602 0.336019,0.300856 0.4169218,0.4475637 C 10.012171,9.1279663 10.025996,9.337821 9.9943673,9.4775115 9.9620154,9.6204226 9.8831656,9.7027351 9.7991817,9.7280229 9.6285161,9.779413 9.4377113,9.6046799 9.2747638,9.2961042 9.1998438,9.1542197 9.1196949,9.0235209 9.0116951,8.9230277 8.8350644,8.7139556 8.5424688,8.6029581 8.2844863,8.5328003 8.0296442,8.4634939 7.8448879,8.4382961 7.8448879,8.4382961 c 0,0 0.1942756,-0.1009195 0.5087025,-0.1638265 0.1232467,-0.024652 0.2565567,-0.039136 0.3954659,-0.035158 z"
       sodipodi:nodetypes="cscccccccscccccccsccscscssssccsssscscscsscsssscscsssscsscsssscscss" />
    <path
       style="fill:#ffffff;fill-opacity:1;stroke-width:0.14082;stroke-linecap:round"
       d="M 4.7005846,2.6382795 C 2.8103163,2.1737706 1.5556268,0.49703698 0.90235978,1.7217271 -0.56390852,4.4705632 1.8336772,8.4170053 1.8336772,8.4170053"
       id="path3"
       sodipodi:nodetypes="csc" />
    <g
       id="g10"
       transform="matrix(1.1219403,0,0,1.2422074,-8.0254405,-29.429075)" />
    <g
       id="g13"
       transform="matrix(-1.1219403,0,0,1.2422074,139.65448,-27.920185)" />
    <path
       style="fill:#ffffff;fill-opacity:1;stroke-width:0.14082;stroke-linecap:round"
       d="M 8.0701452,2.6382795 C 9.9604125,2.1737706 11.215103,0.49703698 11.868371,1.7217271 13.334638,4.4705632 10.937052,8.4170053 10.937052,8.4170053"
       id="path15"
       sodipodi:nodetypes="csc" />
    <g
       id="g29"
       transform="matrix(1.0297493,0,0,1.0297493,0.84320037,-3.7160143)" />
    <path
       style="fill:#000000;fill-opacity:1;stroke-width:1.32292;stroke-linecap:round"
       d="m 141.56702,76.598528 c 0,0 0.72094,-1.502562 2.57994,-3.329627 1.90468,-1.871958 4.84576,-3.791107 8.76232,-4.254014 3.80978,-0.420618 7.44369,0.416512 9.91729,1.389546 2.44917,0.963429 3.05745,2.942275 2.59287,4.150753 -0.49003,1.274676 -2.02814,1.845077 -4.13128,0.950422 -2.89441,-1.231248 -5.76712,-2.309014 -8.71318,-2.513642 0,0 0,0 0,0 -3.01153,-0.323945 -5.84249,0.598747 -7.87149,1.616048 -2.0143,1.009923 -3.13647,1.990514 -3.13647,1.990514 z"
       id="path20"
       sodipodi:nodetypes="cssc"
       inkscape:transform-center-x="-0.7129087"
       inkscape:transform-center-y="0.57793195"
       inkscape:path-effect="#path-effect22"
       inkscape:original-d="m 140.11745,77.150662 c 0,0 15.61368,-4.059267 22.353,-4.99768 4.44394,-0.618792 5.83812,4.548079 1.12395,5.166254 -9.91606,1.300306 -23.47695,-0.168574 -23.47695,-0.168574 z"
       transform="matrix(0.05308215,0.04171788,-0.04171788,0.05308215,2.7207349,4.2874237)" />
    <path
       style="fill:#000000;fill-opacity:1;stroke-width:1.32292;stroke-linecap:round"
       d="m 141.56702,76.598528 c 0,0 0.72094,-1.502562 2.57994,-3.329627 1.90468,-1.871958 4.84576,-3.791107 8.76232,-4.254014 3.80978,-0.420618 7.44369,0.416512 9.91729,1.389546 2.44917,0.963429 3.05745,2.942275 2.59287,4.150753 -0.49003,1.274676 -2.02814,1.845077 -4.13128,0.950422 -2.89441,-1.231248 -5.76712,-2.309014 -8.71318,-2.513642 0,0 0,0 0,0 -3.01153,-0.323945 -5.84249,0.598747 -7.87149,1.616048 -2.0143,1.009923 -3.13647,1.990514 -3.13647,1.990514 z"
       id="path24"
       sodipodi:nodetypes="cssc"
       inkscape:transform-center-x="0.71290821"
       inkscape:transform-center-y="0.57793195"
       inkscape:path-effect="#path-effect29"
       inkscape:original-d="m 140.11745,77.150662 c 0,0 15.61368,-4.059267 22.353,-4.99768 4.44394,-0.618792 5.83812,4.548079 1.12395,5.166254 -9.91606,1.300306 -23.47695,-0.168574 -23.47695,-0.168574 z"
       transform="matrix(-0.05308215,0.04171788,0.04171788,0.05308215,9.8462729,4.2874237)" />
    <g
       id="g4"
       transform="matrix(-1.0297493,0,0,1.0297493,131.55931,-3.7160143)" />
    <g
       id="g5"
       transform="matrix(0.11786007,0,0,0.13049416,11.130739,-3.6355473)">
      <path
         style="fill:#ffffff;fill-opacity:1;stroke-width:1.32292;stroke-linecap:round"
         d="m 99.543495,92.724808 c 5.088885,4.003681 9.999255,3.766515 19.382455,0.377218 -7.48513,14.645944 -24.879621,16.489474 -32.452333,15.399054 z"
         id="path2"
         sodipodi:nodetypes="cccc" />
      <path
         style="fill:#ffffff;fill-opacity:1;stroke-width:1.32292;stroke-linecap:round"
         d="m 97.570715,100.85631 c 3.879265,5.18436 8.683695,6.22617 18.624385,5.38091 -11.02073,12.20961 -28.299667,9.48829 -35.332123,6.47507 z"
         id="path4"
         sodipodi:nodetypes="cccc" />
      <path
         style="fill:#ffffff;fill-opacity:1;stroke-width:1.32292;stroke-linecap:round"
         d="m 99.660915,83.086846 c 5.088885,4.003681 9.999255,3.766514 19.382455,0.377218 -7.48513,14.645952 -24.879624,16.489476 -32.452334,15.39906 z"
         id="path5"
         sodipodi:nodetypes="cccc" />
    </g>
  </g>
</svg>
