<?xml version="1.0" encoding="UTF-8" standalone="no"?>
<!-- Created with Inkscape (http://www.inkscape.org/) -->

<svg
   width="500"
   height="500"
   viewBox="0 0 132.29166 132.29167"
   version="1.1"
   id="svg1"
   inkscape:version="1.4.4 (dcaf3e7d9e, 2026-05-05)"
   sodipodi:docname="cat.svg"
   inkscape:export-filename="renders/cat.png"
   inkscape:export-xdpi="96"
   inkscape:export-ydpi="96"
   xmlns:inkscape="http://www.inkscape.org/namespaces/inkscape"
   xmlns:sodipodi="http://sodipodi.sourceforge.net/DTD/sodipodi-0.dtd"
   xmlns="http://www.w3.org/2000/svg"
   xmlns:svg="http://www.w3.org/2000/svg">
  <sodipodi:namedview
     id="namedview1"
     pagecolor="#898989"
     bordercolor="#999999"
     borderopacity="1"
     inkscape:showpageshadow="2"
     inkscape:pageopacity="0"
     inkscape:pagecheckerboard="0"
     inkscape:deskcolor="#d1d1d1"
     inkscape:document-units="mm"
     showguides="false"
     inkscape:zoom="1.4878904"
     inkscape:cx="375.69971"
     inkscape:cy="294.71257"
     inkscape:window-width="1723"
     inkscape:window-height="1080"
     inkscape:window-x="0"
     inkscape:window-y="0"
     inkscape:window-maximized="0"
     inkscape:current-layer="layer1"
     showgrid="false" />
  <defs
     id="defs1">
    <inkscape:path-effect
       effect="bend_path"
       id="path-effect10"
       is_visible="true"
       lpeversion="1"
       bendpath="m 140.11745,74.979053 c 10.75299,-9.1089 18.96278,-5.891174 25.03007,0.251482"
       prop_scale="0.67826979"
       scale_y_rel="false"
       vertical="false"
       hide_knot="false"
       bendpath-nodetypes="cc" />
    <inkscape:path-effect
       effect="bend_path"
       id="path-effect7"
       is_visible="true"
       lpeversion="1"
       bendpath="m 140.11745,74.979053 c 10.75299,-9.1089 18.96278,-5.891174 25.03007,0.251482"
       prop_scale="0.67826979"
       scale_y_rel="false"
       vertical="false"
       hide_knot="false"
       bendpath-nodetypes="cc" />
    <inkscape:path-effect
       effect="bend_path"
       id="path-effect35"
       is_visible="true"
       lpeversion="1"
       bendpath="m 140.11745,74.979053 c 10.75299,-9.1089 18.96278,-5.891174 25.03007,0.251482"
       prop_scale="0.67826979"
       scale_y_rel="false"
       vertical="false"
       hide_knot="false"
       bendpath-nodetypes="cc" />
    <inkscape:path-effect
       effect="bend_path"
       id="path-effect33"
       is_visible="true"
       lpeversion="1"
       bendpath="m 140.11745,74.979053 c 8.04541,-7.836566 17.47397,-5.191556 25.03007,0.251482"
       prop_scale="1"
       scale_y_rel="false"
       vertical="false"
       hide_knot="false"
       bendpath-nodetypes="cc" />
    <inkscape:path-effect
       effect="bend_path"
       id="path-effect31"
       is_visible="true"
       lpeversion="1"
       bendpath="m 140.11745,74.979053 c 8.04541,-7.836566 17.47397,-5.191556 25.03007,0.251482"
       prop_scale="1"
       scale_y_rel="false"
       vertical="false"
       hide_knot="false"
       bendpath-nodetypes="cc" />
    <inkscape:path-effect
       effect="bend_path"
       id="path-effect29"
       is_visible="true"
       lpeversion="1"
       bendpath="m 140.11745,74.979053 c 8.04541,-7.836566 17.47397,-5.191556 25.03007,0.251482"
       prop_scale="1"
       scale_y_rel="false"
       vertical="false"
       hide_knot="false"
       bendpath-nodetypes="cc" />
    <inkscape:path-effect
       effect="bend_path"
       id="path-effect27"
       is_visible="true"
       lpeversion="1"
       bendpath="m 140.11745,74.979053 c 8.04541,-7.836566 17.47397,-5.191556 25.03007,0.251482"
       prop_scale="1"
       scale_y_rel="false"
       vertical="false"
       hide_knot="false"
       bendpath-nodetypes="cc" />
    <inkscape:path-effect
       effect="bend_path"
       id="path-effect25"
       is_visible="true"
       lpeversion="1"
       bendpath="m 140.11745,74.979053 c 8.04541,-7.836566 17.47397,-5.191556 25.03007,0.251482"
       prop_scale="1"
       scale_y_rel="false"
       vertical="false"
       hide_knot="false"
       bendpath-nodetypes="cc" />
    <inkscape:path-effect
       effect="bend_path"
       id="path-effect22"
       is_visible="true"
       lpeversion="1"
       bendpath="m 140.11745,74.979053 c 8.04541,-7.836566 17.47397,-5.191556 25.03007,0.251482"
       prop_scale="1"
       scale_y_rel="false"
       vertical="false"
       hide_knot="false"
       bendpath-nodetypes="cc" />
    <inkscape:path-effect
       effect="bend_path"
       id="path-effect20"
       is_visible="true"
       lpeversion="1"
       bendpath="m 140.11745,74.979053 c 8.04541,-7.836566 17.47397,-5.191556 25.03007,0.251482"
       prop_scale="1"
       scale_y_rel="false"
       vertical="false"
       hide_knot="false"
       bendpath-nodetypes="cc" />
    <inkscape:path-effect
       effect="bend_path"
       id="path-effect18"
       is_visible="true"
       lpeversion="1"
       bendpath="m 140.11745,74.979053 c 10.75299,-9.1089 18.96278,-5.891174 25.03007,0.251482"
       prop_scale="0.67826979"
       scale_y_rel="false"
       vertical="false"
       hide_knot="false"
       bendpath-nodetypes="cc" />
    <inkscape:path-effect
       effect="bend_path"
       id="path-effect8"
       is_visible="true"
       lpeversion="1"
       bendpath="m 106.4908,87.430264 c 7.35207,2.738577 14.29134,1.574582 21.18718,0"
       prop_scale="0.86572013"
       scale_y_rel="false"
       vertical="false"
       hide_knot="false"
       bendpath-nodetypes="cc" />
    <inkscape:path-effect
       effect="bend_path"
       id="path-effect6"
       is_visible="true"
       lpeversion="1"
       bendpath="m 106.4908,87.430264 c 7.35207,2.738577 14.29134,1.574582 21.18718,0"
       prop_scale="0.86572013"
       scale_y_rel="false"
       vertical="false"
       hide_knot="false"
       bendpath-nodetypes="cc" />
    <inkscape:path-effect
       effect="bend_path"
       id="path-effect4"
       is_visible="true"
       lpeversion="1"
       bendpath="m 106.4908,87.430264 c 7.35207,2.738577 14.29134,1.574582 21.18718,0"
       prop_scale="0.86572013"
       scale_y_rel="false"
       vertical="false"
       hide_knot="false"
       bendpath-nodetypes="cc" />
  </defs>
  <g
     inkscape:label="Layer 1"
     inkscape:groupmode="layer"
     id="layer1">
    <path
       id="path1"
       style="fill:#ffffff;stroke-width:1.88666;stroke-linecap:round"
       d="m 66.145833,27.558008 c -24.650666,-1.4e-5 -44.633982,19.983302 -44.633968,44.633968 -1e-6,2.165156 0.154216,4.294109 0.452169,6.376872 -4.094733,1.056683 -8.874391,-0.01166 -15.8693156,-2.809131 3.4048768,7.376392 8.6377506,12.138072 14.2223876,15.102954 -3.709027,0.399103 -8.082841,-0.728393 -14.0906127,-3.131075 3.7159148,8.050227 9.6086997,12.987084 15.7602787,15.871904 -3.23654,0.9122 -7.28925,0.95398 -12.696383,0.44493 11.649731,14.28998 29.53251,12.11512 38.160461,8.68526 5.686644,2.62663 12.019684,4.09226 18.694983,4.09225 7.27547,1e-5 14.14416,-1.74095 20.21272,-4.82864 9.199225,2.89646 25.238687,3.71751 35.979717,-9.45782 -5.40713,0.50905 -9.45933,0.46727 -12.69587,-0.44494 6.15158,-2.884807 12.04385,-7.821152 15.75976,-15.871379 -6.00777,2.402682 -10.38106,3.530178 -14.09009,3.131075 5.58464,-2.964882 10.81699,-7.727078 14.22187,-15.103471 -6.52667,2.610203 -11.12426,3.715188 -15.03681,2.993099 0.1868,-1.658171 0.28267,-3.343802 0.28267,-5.051888 1e-5,-24.650665 -19.983302,-44.633982 -44.633967,-44.633968 z m -29.901491,46.90624 c 5.123732,-0.127911 9.086538,2.073348 11.936272,4.578065 2.726204,2.396141 4.05898,4.48436 4.05898,4.48436 0,0 -1.953995,-0.798362 -4.844349,-1.561302 -2.925993,-0.772347 -6.422088,-1.33969 -9.3368,-0.289878 -1.627393,0.373907 -3.153225,1.201245 -4.690646,2.168025 -3.343723,2.102639 -6.202549,2.734934 -7.584718,1.265355 -0.6802,-0.723218 -0.987165,-1.97612 -0.495491,-3.560118 0.480598,-1.548315 1.803154,-3.52721 4.336051,-5.056703 1.623348,-0.980261 3.948243,-1.825173 6.620701,-2.027804 z m 60.091912,0 c 2.672449,0.202631 4.996676,1.047543 6.620026,2.027804 2.5329,1.529494 3.85613,3.508388 4.33673,5.056703 0.49166,1.583998 0.18402,2.836899 -0.49617,3.560118 -1.38217,1.469579 -4.241,0.837284 -7.584717,-1.265355 -1.537423,-0.96678 -3.063253,-1.794118 -4.690647,-2.168025 -2.91471,-1.049812 -6.410811,-0.482469 -9.336799,0.289878 -2.890352,0.76294 -4.84435,1.561302 -4.84435,1.561302 0,0 1.333449,-2.088218 4.059654,-4.48436 2.849731,-2.504717 6.812542,-4.705976 11.936273,-4.578065 z m -30.231681,5.697807 c 4.652359,0.05663 9.240632,0.91582 10.527999,2.407343 3.423218,3.966074 -10.720803,11.493365 -10.720803,11.493365 0,0 -14.223635,-7.597437 -10.720803,-11.493365 1.544679,-1.718025 6.261248,-2.463968 10.913607,-2.407343 z m -21.811708,2.939237 c 1.304967,-0.0374 2.557958,0.09868 3.715844,0.330328 2.953851,0.590944 4.778285,1.539055 4.778285,1.539055 0,0 -1.735674,0.236776 -4.129765,0.887838 -2.42361,0.65909 -5.171687,1.701844 -6.831031,3.665959 -1.01455,0.944087 -1.76821,2.171952 -2.472061,3.504838 -1.5308,2.898882 -3.323294,4.540343 -4.926595,4.057632 -0.789025,-0.237554 -1.529725,-1.010855 -1.833653,-2.353412 -0.297081,-1.312314 -0.167229,-3.283773 1.018621,-5.434221 0.760018,-1.378233 2.079955,-2.949933 3.916737,-4.204593 2.268552,-1.386363 4.588675,-1.931094 6.763618,-1.993424 z m 43.994191,0 c 2.174944,0.06233 4.495068,0.607061 6.763618,1.993424 1.836777,1.254656 3.156715,2.826357 3.916737,4.204593 1.185849,2.150449 1.315699,4.121907 1.018621,5.434221 -0.303932,1.342554 -1.044632,2.115854 -1.833653,2.353412 -1.603302,0.482711 -3.395795,-1.15875 -4.926595,-4.057632 -0.703851,-1.332886 -1.456835,-2.560751 -2.471386,-3.504838 -1.659343,-1.964113 -4.408099,-3.006871 -6.831706,-3.665959 -2.39409,-0.651061 -4.129763,-0.887838 -4.129763,-0.887838 0,0 1.825105,-0.948111 4.778957,-1.539055 1.157886,-0.231647 2.410203,-0.367726 3.71517,-0.330328 z"
       sodipodi:nodetypes="cscccccccscccccccsccscscssssccsssscscscsscsssscscsssscsscsssscscss" />
    <path
       style="fill:#ffffff;fill-opacity:1;stroke-width:1.32292;stroke-linecap:round"
       d="M 50.253993,30.482897 C 32.496013,26.119092 20.70893,10.367153 14.571863,21.872412 c -13.77474403,25.823736 8.74919,62.898273 8.74919,62.898273"
       id="path3"
       sodipodi:nodetypes="csc" />
    <g
       id="g10"
       transform="matrix(1.1219403,0,0,1.2422074,-8.0254405,-29.429075)" />
    <g
       id="g13"
       transform="matrix(-1.1219403,0,0,1.2422074,139.65448,-27.920185)" />
    <path
       style="fill:#ffffff;fill-opacity:1;stroke-width:1.32292;stroke-linecap:round"
       d="m 81.909066,30.482897 c 17.75798,-4.363805 29.545064,-20.115744 35.682134,-8.610485 13.77474,25.823736 -8.74919,62.898273 -8.74919,62.898273"
       id="path15"
       sodipodi:nodetypes="csc" />
    <g
       id="g29"
       transform="matrix(1.0297493,0,0,1.0297493,0.84320037,-3.7160143)" />
    <path
       style="fill:#000000;fill-opacity:1;stroke-width:1.32292;stroke-linecap:round"
       d="m 141.56702,76.598528 c 0,0 0.72094,-1.502562 2.57994,-3.329627 1.90468,-1.871958 4.84576,-3.791107 8.76232,-4.254014 3.80978,-0.420618 7.44369,0.416512 9.91729,1.389546 2.44917,0.963429 3.05745,2.942275 2.59287,4.150753 -0.49003,1.274676 -2.02814,1.845077 -4.13128,0.950422 -2.89441,-1.231248 -5.76712,-2.309014 -8.71318,-2.513642 0,0 0,0 0,0 -3.01153,-0.323945 -5.84249,0.598747 -7.87149,1.616048 -2.0143,1.009923 -3.13647,1.990514 -3.13647,1.990514 z"
       id="path20"
       sodipodi:nodetypes="cssc"
       inkscape:transform-center-x="-6.7863668"
       inkscape:transform-center-y="5.5014896"
       inkscape:path-effect="#path-effect22"
       inkscape:original-d="m 140.11745,77.150662 c 0,0 15.61368,-4.059267 22.353,-4.99768 4.44394,-0.618792 5.83812,4.548079 1.12395,5.166254 -9.91606,1.300306 -23.47695,-0.168574 -23.47695,-0.168574 z"
       transform="matrix(0.50530266,0.39712324,-0.39712324,0.50530266,32.125863,45.991712)" />
    <path
       style="fill:#000000;fill-opacity:1;stroke-width:1.32292;stroke-linecap:round"
       d="m 141.56702,76.598528 c 0,0 0.72094,-1.502562 2.57994,-3.329627 1.90468,-1.871958 4.84576,-3.791107 8.76232,-4.254014 3.80978,-0.420618 7.44369,0.416512 9.91729,1.389546 2.44917,0.963429 3.05745,2.942275 2.59287,4.150753 -0.49003,1.274676 -2.02814,1.845077 -4.13128,0.950422 -2.89441,-1.231248 -5.76712,-2.309014 -8.71318,-2.513642 0,0 0,0 0,0 -3.01153,-0.323945 -5.84249,0.598747 -7.87149,1.616048 -2.0143,1.009923 -3.13647,1.990514 -3.13647,1.990514 z"
       id="path24"
       sodipodi:nodetypes="cssc"
       inkscape:transform-center-x="6.7863628"
       inkscape:transform-center-y="5.5014896"
       inkscape:path-effect="#path-effect29"
       inkscape:original-d="m 140.11745,77.150662 c 0,0 15.61368,-4.059267 22.353,-4.99768 4.44394,-0.618792 5.83812,4.548079 1.12395,5.166254 -9.91606,1.300306 -23.47695,-0.168574 -23.47695,-0.168574 z"
       transform="matrix(-0.50530266,0.39712324,0.39712324,0.50530266,99.955688,45.991712)" />
    <g
       id="g4"
       transform="matrix(-1.0297493,0,0,1.0297493,131.55931,-3.7160143)" />
    <g
       id="g5"
       transform="matrix(1.1219403,0,0,1.2422074,112.18285,-29.429075)">
      <path
         style="fill:#ffffff;fill-opacity:1;stroke-width:1.32292;stroke-linecap:round"
         d="m 99.543495,92.724808 c 5.088885,4.003681 9.999255,3.766515 19.382455,0.377218 -7.48513,14.645944 -24.879621,16.489474 -32.452333,15.399054 z"
         id="path2"
         sodipodi:nodetypes="cccc" />
      <path
         style="fill:#ffffff;fill-opacity:1;stroke-width:1.32292;stroke-linecap:round"
         d="m 97.570715,100.85631 c 3.879265,5.18436 8.683695,6.22617 18.624385,5.38091 -11.02073,12.20961 -28.299667,9.48829 -35.332123,6.47507 z"
         id="path4"
         sodipodi:nodetypes="cccc" />
      <path
         style="fill:#ffffff;fill-opacity:1;stroke-width:1.32292;stroke-linecap:round"
         d="m 99.660915,83.086846 c 5.088885,4.003681 9.999255,3.766514 19.382455,0.377218 -7.48513,14.645952 -24.879624,16.489476 -32.452334,15.39906 z"
         id="path5"
         sodipodi:nodetypes="cccc" />
    </g>
  </g>
</svg>
