<?xml version="1.0" encoding="UTF-8" standalone="no"?>
<!-- Created with Inkscape (http://www.inkscape.org/) -->

<svg
   width="48"
   height="48"
   viewBox="0 0 12.7 12.7"
   version="1.1"
   id="svg1"
   inkscape:version="1.4.4 (dcaf3e7d9e, 2026-05-05)"
   sodipodi:docname="cat_hand_paw.svg"
   xmlns:inkscape="http://www.inkscape.org/namespaces/inkscape"
   xmlns:sodipodi="http://sodipodi.sourceforge.net/DTD/sodipodi-0.dtd"
   xmlns="http://www.w3.org/2000/svg"
   xmlns:svg="http://www.w3.org/2000/svg">
  <sodipodi:namedview
     id="namedview1"
     pagecolor="#3b3b3b"
     bordercolor="#999999"
     borderopacity="1"
     inkscape:showpageshadow="2"
     inkscape:pageopacity="0"
     inkscape:pagecheckerboard="0"
     inkscape:deskcolor="#d1d1d1"
     inkscape:document-units="mm"
     inkscape:zoom="11.903123"
     inkscape:cx="21.380944"
     inkscape:cy="27.261753"
     inkscape:window-width="2560"
     inkscape:window-height="1368"
     inkscape:window-x="0"
     inkscape:window-y="0"
     inkscape:window-maximized="1"
     inkscape:current-layer="layer1" />
  <defs
     id="defs1" />
  <g
     inkscape:label="Layer 1"
     inkscape:groupmode="layer"
     id="layer1">
    <path
       style="fill:#ffffff;fill-opacity:1;stroke-width:1.7378;stroke-linecap:round"
       d="M 7.2371293,4.5698489 C 7.6577345,5.6044934 7.5981046,-0.41214891 10.051788,0.74965562 11.531805,1.4504336 8.6438255,5.0572209 9.6569776,5.0302282 10.050862,4.3480016 10.781818,2.520891 11.859449,2.8096414 c 0.797304,0.2136371 1.298169,1.2786049 -0.460683,3.0374571 -0.416985,0.4169856 -0.648454,1.0593105 -0.652409,1.3629466 -0.0077,0.5916588 -0.04396,1.1588853 -0.111643,1.6655772 -0.08579,0.6421999 -0.222063,1.1871567 -0.414728,1.5613687 -0.5903974,1.146734 -2.5588436,1.256093 -4.7733704,0.66271 C 4.1929139,10.763773 4.143258,10.228253 3.5545669,9.6395623 1.2716751,9.6395623 0.61792425,8.8606506 0.6325491,8.0584011 0.66959536,6.0262098 3.6743308,7.8218523 4.0278086,7.0737405 3.5933624,6.3251508 1.8419722,2.3200679 3.3893054,1.9054611 4.2075747,1.6862065 4.9493852,2.1236676 5.0131651,2.9599959 5.0844481,3.8947101 5.131319,5.0988121 5.3531034,5.0070115 5.7260614,4.8526378 4.4962498,0.07427016 7.1890267,0.90718136 8.2860494,1.2465048 6.9677787,3.907275 7.2371293,4.5698489 Z"
       id="path5"
       sodipodi:nodetypes="sscsssssscscsssss" />
    <ellipse
       style="fill:#000000;stroke-width:0.981484;stroke-linecap:round"
       id="path1"
       cx="9.0361481"
       cy="-1.7386198"
       rx="0.80460721"
       ry="1.3018819"
       transform="rotate(23.927829)" />
    <ellipse
       style="fill:#000000;stroke-width:0.929511;stroke-linecap:round"
       id="ellipse2"
       cx="6.6118803"
       cy="0.36007601"
       rx="0.76199931"
       ry="1.2329408"
       transform="rotate(16.340905)" />
    <ellipse
       style="fill:#000000;stroke-width:0.891813;stroke-linecap:round"
       id="ellipse3"
       cx="11.193627"
       cy="-3.7302685"
       rx="0.73109347"
       ry="1.182934"
       transform="rotate(38.627429)" />
    <ellipse
       style="fill:#000000;stroke-width:1.00926;stroke-linecap:round"
       id="ellipse4"
       cx="-3.8118708"
       cy="3.1730883"
       rx="0.82736993"
       ry="1.3387123"
       transform="matrix(-0.99889501,-0.04699745,-0.04699745,0.99889501,0,0)" />
    <path
       style="fill:#000000;stroke-width:1.36253;stroke-linecap:round"
       d="M 7.6765022,5.7954949 C 8.124077,6.3883695 7.8781028,7.0018623 8.3696646,7.4634212 8.9607416,8.0184214 9.3588993,8.1824183 9.2719498,8.9885435 9.1241602,10.358729 7.8736741,10.41272 6.3762184,10.251203 4.9744795,10.100009 3.6377507,9.7988776 3.7872403,8.396957 3.8517987,7.7915268 4.2130788,7.3894139 4.7320861,7.0710682 5.1223522,6.8316892 5.1669427,6.3703091 5.619266,5.715278 5.9878617,5.1814965 7.3222151,5.326193 7.6765022,5.7954949 Z"
       id="path4"
       sodipodi:nodetypes="ssssssss" />
    <ellipse
       style="fill:#000000;stroke-width:0.85989;stroke-linecap:round"
       id="ellipse5"
       cx="6.8891897"
       cy="4.0602288"
       rx="0.70492238"
       ry="1.1405883"
       transform="matrix(-0.25943796,0.96575978,0.96575978,0.25943796,0,0)" />
    <path
       style="fill:#ffffff;fill-opacity:1;stroke-width:1.61561;stroke-linecap:round"
       d="m 5.63213,11.143082 c 0,0 0.7446389,2.807724 2.1038051,4.166891 l 6.0942489,-0.271457 c -1.81623,-1.048601 -3.041961,-2.734136 -3.65112,-4.51979"
       id="path6"
       sodipodi:nodetypes="cccc" />
    <path
       style="fill:#ffffff;fill-opacity:1;stroke-width:1.61561;stroke-linecap:round"
       d="M 12.436684,3.2664797 C 12.605882,3.131901 12.670205,2.5084413 12.254336,2.2683381 12.0978,2.7450869 11.972089,2.7608554 11.644893,2.9497616 Z"
       id="path7"
       sodipodi:nodetypes="cccc" />
    <path
       style="fill:#ffffff;fill-opacity:1;stroke-width:1.33001;stroke-linecap:round"
       d="M 10.00514,0.91540676 C 10.126945,0.78564309 10.10513,0.27013362 9.7377945,0.12405307 9.6670327,0.53103201 9.5665086,0.55883982 9.3224694,0.75166383 Z"
       id="path8"
       sodipodi:nodetypes="cccc" />
    <path
       style="fill:#ffffff;fill-opacity:1;stroke-width:1.33001;stroke-linecap:round"
       d="M 6.961702,0.93076965 C 7.0457711,0.77390204 6.8912763,0.28160413 6.4986491,0.23557475 6.5356323,0.64700066 6.4457308,0.69987856 6.2599136,0.94929411 Z"
       id="path9"
       sodipodi:nodetypes="cccc" />
    <path
       style="fill:#ffffff;fill-opacity:1;stroke-width:1.33001;stroke-linecap:round"
       d="M 3.9159162,1.862842 C 3.9565208,1.6895608 3.679874,1.2540237 3.2887116,1.3111821 3.4309195,1.6990173 3.357767,1.7733615 3.2428354,2.0623715 Z"
       id="path10"
       sodipodi:nodetypes="cccc" />
    <path
       style="fill:#ffffff;fill-opacity:1;stroke-width:1.33001;stroke-linecap:round"
       d="M 0.759431,8.5847354 C 0.6025635,8.6688056 0.11026557,8.5143097 0.06423611,8.1216825 0.47566203,8.1586657 0.52853992,8.0687632 0.77795568,7.8829475 Z"
       id="path11"
       sodipodi:nodetypes="cccc" />
  </g>
</svg>
