<?xml version="1.0" encoding="UTF-8" standalone="no"?>
<!-- Created with Inkscape (http://www.inkscape.org/) -->

<svg
   width="48"
   height="48"
   viewBox="0 0 12.7 12.7"
   version="1.1"
   id="svg1"
   inkscape:version="1.4.4 (dcaf3e7d9e, 2026-05-05)"
   sodipodi:docname="discord.svg"
   xml:space="preserve"
   inkscape:export-filename="discord.png"
   inkscape:export-xdpi="1000"
   inkscape:export-ydpi="1000"
   xmlns:inkscape="http://www.inkscape.org/namespaces/inkscape"
   xmlns:sodipodi="http://sodipodi.sourceforge.net/DTD/sodipodi-0.dtd"
   xmlns:xlink="http://www.w3.org/1999/xlink"
   xmlns="http://www.w3.org/2000/svg"
   xmlns:svg="http://www.w3.org/2000/svg"><sodipodi:namedview
     id="namedview1"
     pagecolor="#3b3b3b"
     bordercolor="#999999"
     borderopacity="1"
     inkscape:showpageshadow="2"
     inkscape:pageopacity="0"
     inkscape:pagecheckerboard="0"
     inkscape:deskcolor="#d1d1d1"
     inkscape:document-units="mm"
     inkscape:zoom="5.9515615"
     inkscape:cx="89.64034"
     inkscape:cy="28.815967"
     inkscape:window-width="2560"
     inkscape:window-height="1368"
     inkscape:window-x="0"
     inkscape:window-y="0"
     inkscape:window-maximized="1"
     inkscape:current-layer="layer1" /><defs
     id="defs1"><linearGradient
       id="linearGradient1"
       inkscape:collect="always"><stop
         style="stop-color:#ffffff;stop-opacity:1;"
         offset="0"
         id="stop1" /><stop
         style="stop-color:#e0b3ff;stop-opacity:1;"
         offset="1"
         id="stop2" /></linearGradient><radialGradient
       inkscape:collect="always"
       xlink:href="#linearGradient1"
       id="radialGradient2"
       cx="6.3499999"
       cy="6.3499999"
       fx="6.3499999"
       fy="6.3499999"
       r="6.3499999"
       gradientUnits="userSpaceOnUse" /></defs><g
     inkscape:label="Layer 1"
     inkscape:groupmode="layer"
     id="layer1"><circle
       style="fill:url(#radialGradient2);fill-opacity:1;stroke:none;stroke-width:1.49672;stroke-linecap:round;stroke-linejoin:bevel;stroke-dasharray:none;stroke-opacity:1"
       id="path15"
       cx="6.3499999"
       cy="6.3499999"
       r="6.3499999" /><path
       d="m 7.1359624,3.5731345 c -0.6867828,-0.1030163 -1.3862006,-0.1030163 -2.0747989,0 C 4.9340141,1.7914085 3.653645,1.9805649 2.5895491,3.6633942 1.3309941,5.6537533 0.99610324,7.227802 1.6074253,8.8034644 c 0.3113092,0.802389 1.4307018,1.1512391 2.2934713,1.1512391 0.5298145,0 0.2888789,-0.8530346 0.49159,-1.0880818 0.4164822,0.103468 1.7415222,0.6865787 3.1705917,0 0.2663739,0.4613734 -0.1725223,1.0898966 0.7367813,1.0898966 0.9182418,0 2.0038864,-0.338965 2.2934724,-1.1494474 C 11.25312,6.9604915 10.619142,5.417501 9.6075769,3.665418 8.3554368,1.4966478 7.3171293,2.3056372 7.1359624,3.5731345 Z M 4.5948926,7.7678809 c -0.4463975,0 -0.8169116,-0.4048372 -0.8169116,-0.9054551 0,-0.5006189 0.3560385,-0.9072716 0.815096,-0.9072716 0.4590576,0 0.8241249,0.4084442 0.8169117,0.9072716 -0.00723,0.4988023 -0.3596447,0.9054551 -0.8150961,0.9054551 z m 3.0109718,0 c -0.448214,0 -0.8150969,-0.4048372 -0.8150969,-0.9054551 0,-0.5006189 0.3560394,-0.9072716 0.8150969,-0.9072716 0.4590326,0 0.8223093,0.4084442 0.815071,0.9072716 -0.00723,0.4988023 -0.3596446,0.9054551 -0.815071,0.9054551 z"
       fill="#000000"
       id="path2"
       sodipodi:nodetypes="ccsssccssscssscsssscs"
       style="stroke-width:0.245341" /><g
       id="g17"
       transform="matrix(0.92727286,0,0,0.92727286,0.21240944,0.63356271)"><path
         style="fill:#ffffff;fill-opacity:1;stroke:none;stroke-width:1.05833;stroke-linecap:round;stroke-linejoin:bevel;stroke-dasharray:none;stroke-opacity:1"
         d="m 8.9105274,7.8167289 c 0,0 0.7813678,0.1531907 1.3374026,0.049187 0.353097,-0.066046 0.189106,-0.3477488 -0.02492,-0.3321171 -0.4266198,0.03116 -1.3124826,0.2829301 -1.3124826,0.2829301 z"
         id="path16"
         sodipodi:nodetypes="cssc"
         inkscape:transform-center-x="-0.76038559"
         inkscape:transform-center-y="-0.095318475" /><path
         style="fill:#ffffff;fill-opacity:1;stroke:none;stroke-width:1.05833;stroke-linecap:round;stroke-linejoin:bevel;stroke-dasharray:none;stroke-opacity:1"
         d="m 8.9105274,7.8167289 c 0,0 0.7532797,-0.2580169 1.1828176,-0.6261041 0.272768,-0.233746 -0.0101,-0.3957123 -0.1876394,-0.2751619 -0.3538836,0.2402953 -0.9951782,0.901266 -0.9951782,0.901266 z"
         id="path17"
         sodipodi:nodetypes="cssc"
         inkscape:transform-center-x="-0.6402105"
         inkscape:transform-center-y="-0.46220485" /></g><g
       id="g19"
       transform="matrix(-0.92727286,0,0,0.92727286,11.937816,0.63356271)"><path
         style="fill:#ffffff;fill-opacity:1;stroke:none;stroke-width:1.05833;stroke-linecap:round;stroke-linejoin:bevel;stroke-dasharray:none;stroke-opacity:1"
         d="m 8.9105274,7.8167289 c 0,0 0.7813678,0.1531907 1.3374026,0.049187 0.353097,-0.066046 0.189106,-0.3477488 -0.02492,-0.3321171 -0.4266198,0.03116 -1.3124826,0.2829301 -1.3124826,0.2829301 z"
         id="path18"
         sodipodi:nodetypes="cssc"
         inkscape:transform-center-x="-0.76038559"
         inkscape:transform-center-y="-0.095318475" /><path
         style="fill:#ffffff;fill-opacity:1;stroke:none;stroke-width:1.05833;stroke-linecap:round;stroke-linejoin:bevel;stroke-dasharray:none;stroke-opacity:1"
         d="m 8.9105274,7.8167289 c 0,0 0.7532797,-0.2580169 1.1828176,-0.6261041 0.272768,-0.233746 -0.0101,-0.3957123 -0.1876394,-0.2751619 -0.3538836,0.2402953 -0.9951782,0.901266 -0.9951782,0.901266 z"
         id="path19"
         sodipodi:nodetypes="cssc"
         inkscape:transform-center-x="-0.6402105"
         inkscape:transform-center-y="-0.46220485" /></g><path
       style="fill:#ffffff;fill-opacity:1;stroke:none;stroke-width:1.05833;stroke-linecap:round;stroke-linejoin:bevel;stroke-dasharray:none;stroke-opacity:1"
       d="m 19.080876,2.184353 c 0.346858,0.5319429 0.217486,0.9893618 -0.01156,1.3860718 -0.541244,-0.1450259 -0.575482,-1.1852636 0.01156,-1.3860718 z"
       id="path20"
       sodipodi:nodetypes="ccc" /><path
       style="fill:#ffffff;fill-opacity:1;stroke:none;stroke-width:1.05833;stroke-linecap:round;stroke-linejoin:bevel;stroke-dasharray:none;stroke-opacity:1"
       d="m 15.342139,2.184353 c -0.346858,0.5319429 -0.217485,0.9893618 0.01156,1.3860718 0.541244,-0.1450259 0.575482,-1.1852636 -0.01156,-1.3860718 z"
       id="path21"
       sodipodi:nodetypes="ccc" /><path
       style="baseline-shift:baseline;display:inline;overflow:visible;opacity:1;vector-effect:none;stroke-width:0.927274;stroke-linecap:round;stroke-linejoin:bevel;enable-background:accumulate;stop-color:#000000;stop-opacity:1"
       d="M 10.628709,2.2867273 C 10.245625,2.0803608 9.7677808,2.2235836 9.5613627,2.6066403 9.3545424,2.988958 9.496387,3.4665447 9.8783675,3.6739868 c 1.5574015,0.8430531 1.6851345,4.0671431 0.5145245,4.522981 -0.123807,0.048244 -0.185018,0.1877573 -0.136684,0.3115287 0.04826,0.1233248 0.187123,0.1844304 0.310642,0.1366821 1.522568,-0.592891 3.121471,-4.7022208 0.06185,-6.3584513 z"
       id="path22"
       sodipodi:nodetypes="ccccccc" /></g></svg>
