<?xml version="1.0" encoding="UTF-8" standalone="no"?>
<!-- Created with Inkscape (http://www.inkscape.org/) -->

<svg
   width="48"
   height="48"
   viewBox="0 0 12.7 12.7"
   version="1.1"
   id="svg1"
   inkscape:version="1.4.4 (dcaf3e7d9e, 2026-05-05)"
   sodipodi:docname="discord.svg"
   xml:space="preserve"
   xmlns:inkscape="http://www.inkscape.org/namespaces/inkscape"
   xmlns:sodipodi="http://sodipodi.sourceforge.net/DTD/sodipodi-0.dtd"
   xmlns="http://www.w3.org/2000/svg"
   xmlns:svg="http://www.w3.org/2000/svg"><sodipodi:namedview
     id="namedview1"
     pagecolor="#3b3b3b"
     bordercolor="#999999"
     borderopacity="1"
     inkscape:showpageshadow="2"
     inkscape:pageopacity="0"
     inkscape:pagecheckerboard="0"
     inkscape:deskcolor="#d1d1d1"
     inkscape:document-units="mm"
     inkscape:zoom="11.903123"
     inkscape:cx="52.969292"
     inkscape:cy="33.394597"
     inkscape:window-width="2560"
     inkscape:window-height="1368"
     inkscape:window-x="0"
     inkscape:window-y="0"
     inkscape:window-maximized="1"
     inkscape:current-layer="layer1" /><defs
     id="defs1" /><g
     inkscape:label="Layer 1"
     inkscape:groupmode="layer"
     id="layer1"><circle
       style="fill:#ffffff;fill-opacity:1;stroke:none;stroke-width:1.49672;stroke-linecap:round;stroke-linejoin:bevel;stroke-dasharray:none;stroke-opacity:1"
       id="path15"
       cx="6.3499999"
       cy="6.3499999"
       r="6.3499999" /><path
       d="m 7.7257878,2.645833 c -0.09549,0.1695661 -0.181266,0.3449822 -0.259212,0.524293 -0.740648,-0.1110959 -1.494922,-0.1110959 -2.237528,0 -0.07599,-0.1793108 -0.163698,-0.3547269 -0.259212,-0.524293 -0.695802,0.1188931 -1.374088,0.3274403 -2.017263,0.6217443 -1.274683,1.8886223 -1.61966,3.7285351 -1.448144,5.5431001 0.746495,0.5515775 1.582632,0.9725825 2.473351,1.2415316 0.20074,-0.268949 0.378116,-0.5554661 0.530146,-0.8536781 -0.288475,-0.107183 -0.567187,-0.2416715 -0.834205,-0.3975905 0.07017,-0.05069 0.138377,-0.103319 0.204655,-0.153987 1.56509,0.7367325 3.377698,0.7367325 4.944719,0 0.06628,0.05458 0.134488,0.107209 0.204655,0.153987 -0.267017,0.1578511 -0.54573,0.2904075 -0.836136,0.3995485 0.152029,0.298212 0.32938,0.584702 0.530145,0.8536781 C 9.6124788,9.7851909 10.448615,9.366144 11.195111,8.8145664 11.397808,6.7095944 10.848163,4.8852927 9.7430508,3.2695352 9.1018328,2.9752233 8.4235478,2.7666735 7.7277458,2.6497303 Z m -2.999581,5.0480384 c -0.481409,0 -0.880983,-0.436589 -0.880983,-0.976471 0,-0.539883 0.383963,-0.97843 0.879025,-0.97843 0.495062,0 0.888762,0.440479 0.880983,0.97843 -0.0078,0.537924 -0.387852,0.976471 -0.879025,0.976471 z m 3.247126,0 c -0.483368,0 -0.879026,-0.436589 -0.879026,-0.976471 0,-0.539883 0.383964,-0.97843 0.879026,-0.97843 0.495035,0 0.886804,0.440479 0.878998,0.97843 -0.0078,0.537924 -0.387852,0.976471 -0.878998,0.976471 z"
       fill="#000000"
       id="path2"
       sodipodi:nodetypes="ccccccccccccccccccssscsssscs"
       style="stroke-width:0.264583" /></g></svg>
