<?xml version="1.0" encoding="UTF-8" standalone="no"?>
<!-- Created with Inkscape (http://www.inkscape.org/) -->

<svg
   width="48"
   height="48"
   viewBox="0 0 12.7 12.7"
   version="1.1"
   id="svg1"
   inkscape:version="1.4.4 (dcaf3e7d9e, 2026-05-05)"
   sodipodi:docname="gear.svg"
   xml:space="preserve"
   inkscape:export-filename="discord.png"
   inkscape:export-xdpi="1000"
   inkscape:export-ydpi="1000"
   xmlns:inkscape="http://www.inkscape.org/namespaces/inkscape"
   xmlns:sodipodi="http://sodipodi.sourceforge.net/DTD/sodipodi-0.dtd"
   xmlns="http://www.w3.org/2000/svg"
   xmlns:svg="http://www.w3.org/2000/svg"><sodipodi:namedview
     id="namedview1"
     pagecolor="#3b3b3b"
     bordercolor="#999999"
     borderopacity="1"
     inkscape:showpageshadow="2"
     inkscape:pageopacity="0"
     inkscape:pagecheckerboard="0"
     inkscape:deskcolor="#d1d1d1"
     inkscape:document-units="mm"
     inkscape:zoom="11.903123"
     inkscape:cx="58.262021"
     inkscape:cy="26.589661"
     inkscape:window-width="2560"
     inkscape:window-height="1368"
     inkscape:window-x="0"
     inkscape:window-y="0"
     inkscape:window-maximized="1"
     inkscape:current-layer="layer1" /><defs
     id="defs1" /><g
     inkscape:label="Layer 1"
     inkscape:groupmode="layer"
     id="layer1"><path
       id="rect27"
       style="fill:#ffffff;fill-opacity:1;stroke:none;stroke-width:0.885191;stroke-linecap:round;stroke-linejoin:round;stroke-dasharray:none;stroke-opacity:1"
       d="m 5.09788,0.35553385 c -0.4884834,0 -0.8815999,0.39311648 -0.8815999,0.88159995 V 2.8287679 L 2.8380697,2.0329508 C 2.4150306,1.7887091 1.8777337,1.9328895 1.633492,2.3559285 L 0.44079997,4.4214355 C 0.19655826,4.8444746 0.34073862,5.3817715 0.76377767,5.6260132 L 2.1419881,6.4218302 0.76377767,7.2171305 C 0.34073862,7.4613722 0.19655826,7.9986691 0.44079997,8.4217082 L 1.633492,10.487732 c 0.2442417,0.423039 0.7815386,0.566703 1.2045777,0.322461 l 1.3782104,-0.795817 v 1.591634 c 0,0.488483 0.3931165,0.8816 0.8815999,0.8816 h 2.3853842 c 0.4884834,0 0.8815999,-0.393117 0.8815999,-0.8816 v -1.591634 l 1.3782104,0.795817 c 0.4230395,0.244242 0.9603355,0.100578 1.2045775,-0.322461 L 12.140344,8.4217082 C 12.384586,7.9986691 12.240406,7.4613722 11.817367,7.2171305 L 10.439156,6.4213135 11.817367,5.6260132 C 12.240406,5.3817715 12.384586,4.8444746 12.140344,4.4214355 L 10.947652,2.3559285 C 10.70341,1.9328895 10.166114,1.7887091 9.7430745,2.0329508 L 8.3648641,2.8287679 V 1.2371338 c 0,-0.48848347 -0.3931165,-0.88159995 -0.8815999,-0.88159995 z M 3.4675361,3.6421795 C 3.6069517,3.6348685 3.75463,3.6930337 3.8840482,3.7677532 4.4260546,4.0806809 4.6744359,4.1793064 5.2555407,4.3744346 5.5595306,4.2512136 5.8917726,4.1832643 6.2399767,4.1832318 6.5860455,4.1832641 6.9162574,4.2500605 7.2187283,4.3718507 7.7950289,4.1782155 8.0435936,4.0794701 8.5835029,3.7677532 10.056919,2.9170764 9.645497,6.6082457 8.6243273,7.8987672 8.4913834,8.1882889 8.3074411,8.4496379 8.0837918,8.6708131 c 0.2599361,0.229325 1.5672611,1.0622134 2.4174242,-0.4103108 0.146232,-0.2528584 0.469987,-0.3393159 0.722953,-0.1932699 0.25286,0.146232 0.339316,0.4694704 0.19327,0.7224365 C 10.388354,10.629169 8.2308501,9.6745774 7.7721829,8.9343629 7.3411456,9.2451934 6.8119799,9.4283361 6.2399767,9.4283896 5.195838,9.428292 4.2941428,8.8181372 3.8721626,7.9349407 2.9422667,6.8142852 2.4968365,3.6930861 3.4675361,3.6421795 Z"
       sodipodi:nodetypes="sscccccccccccsssscccccccccccssssscccsccccccccs" /></g></svg>
