<?xml version="1.0" encoding="UTF-8" standalone="no"?>
<!-- Created with Inkscape (http://www.inkscape.org/) -->

<svg
   width="48"
   height="48"
   viewBox="0 0 12.7 12.7"
   version="1.1"
   id="svg1"
   inkscape:version="1.4.4 (dcaf3e7d9e, 2026-05-05)"
   sodipodi:docname="yarn.svg"
   xml:space="preserve"
   inkscape:export-filename="discord.png"
   inkscape:export-xdpi="1000"
   inkscape:export-ydpi="1000"
   xmlns:inkscape="http://www.inkscape.org/namespaces/inkscape"
   xmlns:sodipodi="http://sodipodi.sourceforge.net/DTD/sodipodi-0.dtd"
   xmlns="http://www.w3.org/2000/svg"
   xmlns:svg="http://www.w3.org/2000/svg"><sodipodi:namedview
     id="namedview1"
     pagecolor="#3b3b3b"
     bordercolor="#999999"
     borderopacity="1"
     inkscape:showpageshadow="2"
     inkscape:pageopacity="0"
     inkscape:pagecheckerboard="0"
     inkscape:deskcolor="#d1d1d1"
     inkscape:document-units="mm"
     inkscape:zoom="11.903123"
     inkscape:cx="49.440806"
     inkscape:cy="27.513788"
     inkscape:window-width="2560"
     inkscape:window-height="1368"
     inkscape:window-x="0"
     inkscape:window-y="0"
     inkscape:window-maximized="1"
     inkscape:current-layer="layer1" /><defs
     id="defs1" /><g
     inkscape:label="Layer 1"
     inkscape:groupmode="layer"
     id="layer1"><path
       id="path2"
       style="fill:#ffffff;fill-opacity:1;stroke:none;stroke-width:5.5851;stroke-linejoin:bevel"
       d="m -17.690418,-0.91159096 a 3.1593933,5.3204117 0 0 0 -2.201933,1.50585119 5.3204117,3.1593933 30 0 0 -2.405537,1.15445147 5.3204117,3.1593933 30 0 0 0.203088,2.6603028 3.1593933,5.3204117 60 0 0 -0.203088,2.659786 3.1593933,5.3204117 60 0 0 2.405537,1.1544514 3.1593933,5.3204117 0 0 0 2.201933,1.5058512 3.1593933,5.3204117 0 0 0 2.20245,-1.5058512 5.3204117,3.1593933 30 0 0 2.405538,-1.1544514 5.3204117,3.1593933 30 0 0 -0.203089,-2.659786 3.1593933,5.3204117 60 0 0 0.203089,-2.6603028 3.1593933,5.3204117 60 0 0 -2.405538,-1.15445147 3.1593933,5.3204117 0 0 0 -2.20245,-1.50585119 z" /><path
       id="path3"
       style="fill:#ffffff;fill-opacity:1;stroke:none;stroke-width:3.175;stroke-linejoin:bevel"
       d="m -30.712122,1.2417847 a 1.257409,5.0296359 0 0 0 -0.586011,0.5792928 5.0296359,1.257409 75 0 0 -0.715719,-0.4082438 5.0296359,1.257409 75 0 0 -0.415995,0.7115844 5.0296359,1.257409 60 0 0 -0.797367,-0.2087728 5.0296359,1.257409 60 0 0 -0.217558,0.7947836 5.0296359,1.257409 45 0 0 -0.823722,0.00465 5.0296359,1.257409 45 0 0 -0.0047,0.8237223 5.0296359,1.257409 30 0 0 -0.794784,0.2175578 5.0296359,1.257409 30 0 0 0.208773,0.7973673 5.0296359,1.257409 15 0 0 -0.711068,0.4159953 5.0296359,1.257409 15 0 0 0.407727,0.7157186 5.0296359,1.257409 0 0 0 -0.579292,0.5860107 5.0296359,1.257409 0 0 0 0.579292,0.5860108 1.257409,5.0296359 75 0 0 -0.407727,0.7157186 1.257409,5.0296359 75 0 0 0.711068,0.4159952 1.257409,5.0296359 60 0 0 -0.208773,0.7968506 1.257409,5.0296359 60 0 0 0.794784,0.2180746 1.257409,5.0296359 45 0 0 0.0047,0.8237223 1.257409,5.0296359 45 0 0 0.823722,0.00465 1.257409,5.0296359 30 0 0 0.217558,0.794783 1.257409,5.0296359 30 0 0 0.797367,-0.208772 1.257409,5.0296359 15 0 0 0.415995,0.711067 1.257409,5.0296359 15 0 0 0.715719,-0.407727 1.257409,5.0296359 0 0 0 0.586011,0.579293 1.257409,5.0296359 0 0 0 0.586011,-0.579293 5.0296359,1.257409 75 0 0 0.715718,0.407727 5.0296359,1.257409 75 0 0 0.415995,-0.711067 5.0296359,1.257409 60 0 0 0.796851,0.208772 5.0296359,1.257409 60 0 0 0.218075,-0.794783 5.0296359,1.257409 45 0 0 0.823722,-0.00465 5.0296359,1.257409 45 0 0 0.0047,-0.8237223 5.0296359,1.257409 30 0 0 0.794783,-0.2180746 5.0296359,1.257409 30 0 0 -0.208772,-0.7968506 5.0296359,1.257409 15 0 0 0.711067,-0.4159952 5.0296359,1.257409 15 0 0 -0.407727,-0.7157186 5.0296359,1.257409 0 0 0 0.579293,-0.5860108 5.0296359,1.257409 0 0 0 -0.579293,-0.5860107 1.257409,5.0296359 75 0 0 0.407727,-0.7157186 1.257409,5.0296359 75 0 0 -0.711067,-0.4159953 1.257409,5.0296359 60 0 0 0.208772,-0.7973673 1.257409,5.0296359 60 0 0 -0.794783,-0.2175578 1.257409,5.0296359 45 0 0 -0.0047,-0.8237223 1.257409,5.0296359 45 0 0 -0.823722,-0.00465 1.257409,5.0296359 30 0 0 -0.218075,-0.7947836 1.257409,5.0296359 30 0 0 -0.796851,0.2087728 1.257409,5.0296359 15 0 0 -0.415995,-0.7115844 1.257409,5.0296359 15 0 0 -0.715718,0.4082438 1.257409,5.0296359 0 0 0 -0.586011,-0.5792928 z" /><path
       id="path14"
       style="fill:#ffffff;fill-opacity:1;stroke:none;stroke-width:3.87057;stroke-linejoin:bevel"
       d="M 7.0927784,0 C 6.6670502,-3.5136769e-5 6.2489042,0.24431356 5.8808273,0.70821827 6.2356445,1.676164 6.4775323,2.6420974 6.6060031,3.6059284 c 0.5668711,-0.017359 1.1327854,0.0046 1.6982277,0.065835 V 0.70821827 C 7.9363001,0.2444979 7.5183374,1.557179e-4 7.0927784,0 Z M 8.3042308,0.70821827 C 8.6798646,1.7329312 8.9288979,2.7554146 9.0508525,3.7755019 9.8647217,3.9135915 10.67682,4.133072 11.487722,4.4343444 H 9.0892558 c 0.039002,0.5908475 0.037962,1.1811851 -0.00499,1.7705458 C 9.886913,6.3432937 10.687959,6.5606147 11.48772,6.8577478 H 8.9895068 C 8.8678826,7.8243106 8.6617441,8.7891873 8.3042308,9.751468 8.8546127,9.9689815 9.3386453,9.9715623 9.7072012,9.758996 10.07599,9.5463034 10.316036,9.1257485 10.402951,8.540063 c 0.585686,-0.086915 1.006241,-0.3269615 1.218934,-0.6957498 0.212613,-0.368556 0.210032,-0.8525886 -0.0075,-1.4029704 0.463777,-0.3681466 0.707952,-0.7862912 0.707766,-1.2119984 -5e-6,-0.425538 -0.244173,-0.8434993 -0.70772,-1.2114523 0.217514,-0.5503818 0.220095,-1.0344145 0.0075,-1.4029706 C 11.409051,2.2463716 10.988505,2.0065022 10.402951,1.9196706 10.316036,1.3339848 10.07599,0.91342984 9.7072012,0.70073706 9.3386453,0.48812351 8.8546126,0.49070456 8.3042308,0.70821827 Z m 0,9.04324973 V 6.8577478 H 6.5601184 C 6.438884,7.8241878 6.2382923,8.7893176 5.8808273,9.751468 c 0.3680769,0.463905 0.7862229,0.708254 1.2119511,0.708218 0.425559,-1.55e-4 0.8435217,-0.244498 1.2114524,-0.708218 z m -2.4234035,0 V 6.8577478 H 2.4459685 c -0.078484,0.3798316 -0.038674,0.7149087 0.1172052,0.9865181 0.2126928,0.3687883 0.6332478,0.608835 1.2189335,0.6957498 0.086915,0.5856855 0.3269615,1.0062404 0.6957496,1.218933 0.368556,0.2126136 0.8525886,0.2100328 1.4029705,-0.00753 z m 0,-9.04324973 C 5.3304455,0.49070456 4.8464128,0.48812351 4.4778568,0.70073706 4.1090686,0.91342984 3.8690219,1.3339848 3.7821072,1.9196706 3.1965531,2.0065022 2.7760073,2.2463716 2.5631737,2.6149215 2.35056,2.9834775 2.3531411,3.4675102 2.5706548,4.0178921 2.1071087,4.3858451 1.8629395,4.8038064 1.8629353,5.2293444 1.8627486,5.6550516 2.1069245,6.0731962 2.5706548,6.4412955 2.5146351,6.5842979 2.4729746,6.7232775 2.4459685,6.857249 3.5938223,6.4366138 4.7387612,6.1755427 5.8808273,6.0732214 V 4.4343444 H 2.4444722 C 3.5928329,4.0133844 4.7382594,3.7516855 5.8808273,3.6493193 Z M 6.7857127,4.2598946 c 0.091005,0.5316738 0.1032195,1.062522 0.00698,1.5929924 0.5374093,-0.089629 1.0512951,-0.082063 1.6328921,0.067829 -0.060678,-0.5434942 -0.060678,-1.0971015 0,-1.6608218 -0.6073844,0.091912 -0.9828242,0.074732 -1.6398746,0 z"
       sodipodi:nodetypes="ccccccccccccccccccccccccccccccccccccccccccccccccccccccccc" /><path
       style="baseline-shift:baseline;display:inline;overflow:visible;opacity:1;vector-effect:none;fill:#ffffff;stroke-width:1.01781;stroke-linecap:round;stroke-linejoin:bevel;enable-background:accumulate;stop-color:#000000;stop-opacity:1"
       d="M 2.328986,7.3564256 C -0.71446389,8.3992893 -0.07969158,14.122148 7.4611881,12.101576 7.9014005,11.943064 8.1083619,11.507646 7.9231745,11.129625 7.7387142,10.752858 7.2343234,10.575323 6.7952897,10.732632 0.96483465,12.076129 1.0516681,8.4768035 2.6023515,7.9454487 2.7912045,7.8805328 2.8831257,7.6963982 2.8077157,7.5340675 2.7327108,7.3713238 2.5182712,7.2917518 2.328986,7.3564256 Z"
       id="path21"
       sodipodi:nodetypes="ccccccc" /></g></svg>
